<svg width="406" height="142" viewBox="0 0 406 142" fill="none" xmlns="http://www.w3.org/2000/svg">
<path d="M2.2 43.67H30.57V139.42H2.2V43.67ZM16.42 0C6.9 0 0 6.13 0 14.83C0 23.46 6.9 29.66 16.42 29.66C25.94 29.66 32.84 23.46 32.84 14.83C32.84 6.13 25.93 0 16.42 0ZM111.83 107.04C106.29 114.58 101.94 117.57 94.81 117.57C86.62 117.57 82.92 113.26 82.92 99.48V43.67H54.55V103.11C54.55 127.04 63.43 141.73 84.25 141.73C97.31 141.73 106.32 135.67 114.31 126.13H115.01L117.05 139.41H140.2V43.67H111.83V107.04ZM171.31 43.65H168.63V64.68H171.31V43.65ZM180.08 53.67C180.08 51.47 179.87 49.23 179.74 47.1H179.87L182.14 51.44L189.75 64.67H192.51V43.65H189.97V54.53C189.97 56.73 190.17 59.1 190.31 61.22H190.18L187.91 56.86L180.3 43.64H177.54V64.67H180.08V53.67ZM203.12 64.68H205.8V45.91H212.16V43.65H196.76V45.91H203.12V64.68ZM219.07 54.77H227.04V52.51H219.07V45.91H228.52V43.65H216.39V64.68H228.84V62.41H219.07V54.77ZM242.96 55.47L248.33 64.67H245.29L240.23 55.78H236.43V64.67H233.75V43.65H240.34C244.62 43.65 247.7 45.19 247.7 49.57C247.7 52.84 245.81 54.77 242.96 55.47ZM245.03 49.56C245.03 46.8 243.23 45.81 239.96 45.81H236.43V53.61H239.96C243.23 53.62 245.03 52.29 245.03 49.56ZM264.89 54.53C264.89 56.73 265.1 59.1 265.23 61.22H265.1L262.83 56.86L255.22 43.64H252.46V64.67H255V53.66C255 51.46 254.8 49.22 254.66 47.09H254.79L257.06 51.43L264.67 64.66H267.43V43.65H264.89V54.53ZM281 43.65L288.11 64.68H285.28L283.28 58.27H275.61L273.59 64.68H270.87L277.99 43.65H281ZM281.61 52.93C280.85 50.58 280.18 48.27 279.5 45.84H279.37C278.72 48.28 278.04 50.58 277.29 52.93L276.28 56.13H282.61L281.61 52.93ZM294.18 64.68H296.86V45.91H303.22V43.65H287.82V45.91H294.18V64.68ZM310.12 43.65H307.44V64.68H310.12V43.65ZM333.11 54.09C333.11 60.83 329.4 65.07 324.12 65.07C318.84 65.07 315.13 60.83 315.13 54.09C315.13 47.35 318.84 43.27 324.12 43.27C329.4 43.26 333.11 47.36 333.11 54.09ZM330.35 54.09C330.35 48.85 327.88 45.62 324.12 45.62C320.36 45.62 317.9 48.85 317.9 54.09C317.9 59.33 320.37 62.72 324.12 62.72C327.87 62.72 330.35 59.33 330.35 54.09ZM353.08 64.68V43.65H350.54V54.53C350.54 56.73 350.74 59.1 350.88 61.22H350.75L348.48 56.86L340.87 43.64H338.11V64.67H340.65V53.66C340.65 51.46 340.44 49.22 340.31 47.09H340.44L342.71 51.43L350.32 64.66H353.08V64.68ZM366.65 43.65L373.76 64.68H370.93L368.93 58.27H361.26L359.24 64.68H356.51L363.63 43.65H366.65ZM367.26 52.93C366.5 50.58 365.83 48.27 365.15 45.84H365.02C364.37 48.28 363.7 50.58 362.94 52.93L361.93 56.13H368.26L367.26 52.93ZM379.76 43.65H377.08V64.68H388.94V62.41H379.76V43.65ZM395.8 62.41V54.76H403.77V52.5H395.8V45.91H405.25V43.65H393.13V64.68H405.57V62.41H395.8ZM181.1 89.82H171.32V81.01H168.64V102.04H171.32V92.15H181.1V102.04H183.77V81.01H181.1V89.82ZM206.76 91.45C206.76 98.19 203.05 102.43 197.77 102.43C192.49 102.43 188.78 98.19 188.78 91.45C188.78 84.71 192.49 80.62 197.77 80.62C203.05 80.63 206.76 84.73 206.76 91.45ZM204 91.45C204 86.21 201.53 82.98 197.77 82.98C194.01 82.98 191.55 86.21 191.55 91.45C191.55 96.69 194.02 100.07 197.77 100.07C201.52 100.07 204 96.69 204 91.45ZM219.8 100.08C215.81 100.08 213.29 96.77 213.29 91.48C213.29 86.24 215.93 82.98 219.91 82.98C221.68 82.98 223.07 83.78 224.18 84.96L225.65 83.22C224.42 81.87 222.42 80.63 219.87 80.63C214.53 80.63 210.53 84.77 210.53 91.55C210.53 98.38 214.46 102.43 219.7 102.43C222.43 102.43 224.49 101.32 226.15 99.39L224.68 97.71C223.33 99.2 221.81 100.08 219.8 100.08ZM242.98 89.82H233.2V81.01H230.52V102.04H233.2V92.15H242.98V102.04H245.66V81.01H242.98V89.82ZM260.55 90.83L257.55 89.53C255.9 88.83 254.07 88.08 254.07 86.05C254.07 84.17 255.63 82.98 257.99 82.98C259.93 82.98 261.47 83.74 262.76 84.95L264.18 83.23C262.7 81.7 260.48 80.62 257.99 80.62C254.17 80.62 251.37 82.99 251.37 86.2C251.37 89.29 253.67 90.78 255.63 91.62L258.65 92.95C260.64 93.82 262.16 94.5 262.16 96.65C262.16 98.69 260.53 100.07 257.76 100.07C255.57 100.07 253.47 99.04 251.96 97.46L250.36 99.3C252.2 101.22 254.76 102.42 257.72 102.42C262.14 102.42 264.89 99.77 264.89 96.44C264.88 93.33 262.98 91.88 260.55 90.83ZM277.52 100.08C273.53 100.08 271.01 96.77 271.01 91.48C271.01 86.24 273.65 82.98 277.63 82.98C279.41 82.98 280.8 83.78 281.9 84.96L283.37 83.22C282.14 81.87 280.14 80.63 277.58 80.63C272.24 80.63 268.25 84.77 268.25 91.55C268.25 98.38 272.18 102.43 277.41 102.43C280.14 102.43 282.2 101.32 283.86 99.39L282.39 97.71C281.05 99.2 279.52 100.08 277.52 100.08ZM300.69 89.82H290.91V81.01H288.23V102.04H290.91V92.15H300.69V102.04H303.36V81.01H300.69V89.82ZM322.06 93.43C322.06 98.48 319.86 100.07 317.07 100.07C314.32 100.07 312.19 98.48 312.19 93.43V81.01H309.51V93.36C309.51 100.11 312.78 102.43 317.07 102.43C321.36 102.43 324.62 100.11 324.62 93.36V81.01H322.05V93.43H322.06ZM333.41 81.01H330.73V102.04H342.59V99.77H333.41V81.01ZM349.46 92.13H357.43V89.86H349.46V83.27H358.91V81H346.79V102.03H359.23V99.76H349.46V92.13Z" fill="black"/>
</svg>
