<?xml version="1.0" encoding="UTF-8" standalone="no"?>
<!-- Created with Inkscape (http://www.inkscape.org/) -->

<svg
   width="78.938972mm"
   height="117.46829mm"
   viewBox="0 0 78.938972 117.46829"
   version="1.1"
   id="svg1"
   xml:space="preserve"
   xmlns:xlink="http://www.w3.org/1999/xlink"
   xmlns="http://www.w3.org/2000/svg"
   xmlns:svg="http://www.w3.org/2000/svg"><defs
     id="defs1"><color-profile
       name="Agfa-:-Swop-Standard"
       xlink:href="../../Windows/system32/spool/drivers/color/RSWOP.icm"
       id="color-profile1" /><color-profile
       name="sRGB-IEC61966-2.1"
       xlink:href="../../Windows/system32/spool/drivers/color/sRGB%20Color%20Space%20Profile.icm"
       id="color-profile2" /><color-profile
       name="EPSON-sRGB"
       xlink:href="../../Windows/system32/spool/drivers/color/ewsrgb.icm"
       id="color-profile3" /></defs><g
     id="layer1"
     transform="translate(-54.952383,-97.633769)"><path
       id="path5"
       style="fill:#b3b3b3;stroke-width:0.264583"
       d="m 94.217561,215.10155 c -0.45255,0.003 -1.41683,-0.0233 -1.88877,-0.28112 -0.63349,-0.34611 -0.19256,-0.58914 -1.39372,-1.65727 -0.95461,-0.84888 -2.33071,-0.88653 -3.52123,-1.29087 -0.47701,-0.16201 -1.18247,-0.58923 -1.57458,-0.90589 -0.99685,-0.80503 -1.67763,-1.7699 -3.09129,-2.94194 -1.54985,-1.28495 -3.23942,-2.92363 -3.6959,-4.39508 -0.23189,-0.74751 0.57011,-1.52799 0.45889,-2.3027 -0.10346,-0.72062 -0.9107,-1.21441 -1.01234,-1.93529 -0.11319,-0.80271 0.55103,-1.57461 0.48782,-2.3828 -0.0511,-0.65354 -0.65135,-1.18731 -0.68936,-1.84174 -0.0431,-0.74293 0.54767,-1.42325 0.53485,-2.16731 -0.0151,-0.87832 -0.75123,-1.65792 -0.71882,-2.53577 0.0104,-0.28163 0.14804,-0.51005 0.30024,-0.74207 0.38526,-0.5873 0.38484,-1.338 0.41651,-1.49707 0.11964,-0.60074 -0.5071,-1.59677 -0.65525,-2.2934 -0.40229,-1.89164 -0.38448,-5.14697 -0.38448,-5.14697 l 16.63775,0.92656 16.637229,-0.92656 c 0,0 0.0178,3.25533 -0.38447,5.14697 -0.14815,0.69663 -0.77489,1.69266 -0.65526,2.2934 0.0317,0.15907 0.0318,0.90977 0.41703,1.49707 0.1522,0.23202 0.28984,0.46044 0.30024,0.74207 0.0324,0.87785 -0.7042,1.65745 -0.71934,2.53577 -0.0128,0.74406 0.578,1.42438 0.53485,2.16731 -0.038,0.65443 -0.63772,1.1882 -0.68884,1.84174 -0.0632,0.80819 0.60049,1.58009 0.48731,2.3828 -0.10165,0.72088 -0.90889,1.21467 -1.01234,1.93529 -0.11123,0.77471 0.69078,1.55519 0.45888,2.3027 -0.45648,1.47145 -2.14605,3.11013 -3.6959,4.39508 -1.41366,1.17204 -2.09443,2.13691 -3.09128,2.94194 -0.39212,0.31666 -1.09757,0.74388 -1.57458,0.90589 -1.19053,0.40434 -2.566629,0.44199 -3.521229,1.29087 -1.20116,1.06813 -0.76023,1.31116 -1.39372,1.65727 -0.60702,0.33165 -1.9989,0.28053 -2.09858,0.27647 -0.022,8.9e-4 -0.0805,0.004 -0.21032,0.005 z" /><path
       id="path13"
       style="fill:#b3b3b3;stroke-width:0.264583"
       d="m 94.418121,97.633779 v 5.1e-4 c -0.024,7.1e-4 -0.04783,0.0031 -0.07183,0.0031 v 0.0062 c -14.14992,0.3132 -28.29214,9.754021 -32.20527,26.099701 -0.72802,3.04111 -1.10275,6.3209 -1.05678,9.82576 0.1499,11.42803 11.12363,27.06145 11.8029,32.012 0.06135,0.44712 0.08672,0.93889 0.10903,1.43815 h 5.26635 c -0.05528,-1.07751 -0.15771,-2.14831 -0.42788,-3.19205 -1.74839,-5.61248 -4.70577,-10.73537 -7.15977,-16.05225 -1.57984,-3.45467 -3.073,-7.01266 -3.7977,-10.78435 -0.95509,-5.15372 -0.28934,-10.59123 1.52445,-15.53601 1.83144,-5.21847 5.4416,-9.78352 9.87072,-12.9837 4.39652,-3.19871 9.83353,-5.23568 15.33446,-5.47047 3.71057,-0.0726 7.541499,0.69887 10.896489,2.06809 6.19181,2.50096 11.50909,7.21617 14.52935,13.193 0.51921,1.04255 0.96821,2.12243 1.37511,3.21892 l -5.16661,1.38441 -3.9517,1.05885 -0.64182,0.17209 -0.57464,0.15399 c 1.62618,3.58604 2.13165,7.64822 1.22473,11.51196 -0.76155,3.04422 -1.95116,5.9195 -3.27422,8.7421 l -3.99769,-3.99769 c 1.08819,-2.49486 1.98461,-5.05874 2.37557,-7.77316 0.47365,-5.89789 -3.59514,-12.00821 -9.445419,-13.36921 -1.04411,-0.25451 -2.12105,-0.36384 -3.19515,-0.33022 -6.72653,0.54259 -12.22007,7.3264 -11.29595,14.02344 0.06091,0.67478 0.1725,1.33371 0.31677,1.9823 l 5.11597,-1.37097 c -1.142,-4.06076 1.88713,-8.81333 6.12676,-9.32811 0.0988,-0.007 0.19767,-0.0101 0.2961,-0.0109 1.47653,-0.0109 2.90357,0.62515 4.02095,1.56942 2.127759,1.72112 3.178449,4.62244 2.607069,7.30446 -0.85676,3.24384 -2.240749,6.28817 -3.716049,9.29194 l 2.76469,6.33088 c 0.200929,-0.39845 0.399729,-0.79834 0.605129,-1.19321 0.34155,-0.70911 0.6966,-1.41993 1.04852,-2.12958 l 3.95428,3.95428 c -1.10901,2.22479 -2.20468,4.45508 -3.14503,6.74687 -0.49065,1.03928 -0.8906,2.10999 -1.2206,3.20136 l 5.15576,1.38182 c 1.6251,-5.10503 4.55827,-9.65533 6.64817,-14.56758 2.29803,-4.92783 4.42264,-10.24237 3.98115,-15.7887 -0.0653,-0.85602 -0.19224,-1.70739 -0.34623,-2.55489 l 5.16506,-1.38389 1.74408,-0.46716 3.40755,-0.91312 C 123.56,107.92885 109.03715,97.965399 94.498221,97.643589 v -0.0062 c -0.024,0 -0.04793,-0.0021 -0.07183,-0.0031 v -5.1e-4 c -10e-4,2e-5 -0.0021,-3e-5 -0.0041,0 -0.001,-3e-5 -0.0021,2e-5 -0.0041,0 z m -0.81545,10.770911 c -9.35044,0.43981 -18.10059,7.26681 -20.71347,16.31942 -1.70598,5.42523 -1.46321,11.4468 0.78549,16.68064 2.98958,7.66425 7.66834,14.66313 9.59269,22.73349 0.5819,2.82373 -0.03148,5.78954 0.84698,8.56537 0.88634,1.20067 2.4941,1.27296 3.80545,1.64951 1.43719,0.30776 2.90542,0.51728 4.38216,0.62839 v 5.302 c -1.881,-0.097 -3.75025,-0.46802 -5.59035,-0.85938 -2.83836,-0.49777 -5.9463,-1.63844 -7.3887,-4.32428 -0.41075,-0.92906 -0.63823,-1.8904 -0.77463,-2.86804 h -5.36143 c 0.30233,3.31224 1.33979,6.83035 5.18521,9.62835 2.55614,1.85987 9.20158,3.71748 16.04605,3.93361 v 0.009 c 3.3e-4,-2e-5 0.0031,-0.0607 0.0041,-0.0651 5.1e-4,0.004 0.0031,0.0651 0.0041,0.0651 v -0.009 c 6.844459,-0.21613 13.489909,-2.07374 16.046049,-3.93361 6.69736,-4.87312 4.88869,-11.93361 5.48494,-16.27911 0.41769,-3.04417 4.72403,-10.13045 8.01656,-17.79168 2.06191,-4.79774 3.72861,-9.81953 3.78633,-14.22032 0.0145,-1.10495 -0.0246,-2.1808 -0.0915,-3.24063 l -5.25033,1.40663 c 0.0218,1.5412 -0.084,3.08389 -0.33331,4.61161 -1.52079,7.70831 -5.53377,14.56997 -8.83306,21.6054 -1.9014,3.29601 -2.76854,7.10883 -2.77554,10.89701 0.11014,2.75125 -0.12532,5.86353 -2.19986,7.90907 -1.82507,1.4764 -3.98794,2.22366 -6.20169,2.70992 -1.50894,0.2593 -3.030189,0.56983 -4.559929,0.72863 v -5.28391 c 2.34405,-0.25419 4.646849,-0.8203 6.819739,-1.76785 1.0026,-0.80292 0.6888,-2.30208 0.83767,-3.38532 0.0412,-1.28063 0.0738,-2.57315 0.17312,-3.85662 l -5.15472,-1.38131 c -0.18704,1.51358 -0.289279,3.03938 -0.328669,4.55683 -3.56434,0.97649 -7.35833,0.82902 -10.943,0.0351 -0.09747,-1.64785 -0.05378,-3.37091 -0.31471,-5.03173 -1.24508,-6.36199 -4.18592,-12.13667 -6.98717,-17.93793 l 5.21157,-1.39629 c 0.10765,0.2294 0.21836,0.45804 0.32246,0.68833 2.91039,6.07168 5.85902,12.30155 6.81044,19.02519 0.3218,-0.19884 1.04985,0.26914 0.91829,-0.27957 0.35532,-3.16815 1.21848,-6.22503 2.35386,-9.18755 l -2.95486,-6.77582 c -0.0791,-0.10129 -0.15704,-0.32697 -0.23564,-0.54053 l -0.13281,-0.30437 c -0.01837,-0.0337 -0.03671,-0.0707 -0.05529,-0.092 -1.19938,-2.97764 -2.81862,-5.77944 -4.14135,-8.70283 l -2.22984,0.59738 -2.95538,0.79169 -5.15265,1.38079 c -2.30114,-4.71905 -3.04135,-10.31281 -1.37615,-15.34842 2.19607,-6.64697 8.59939,-11.84302 15.55978,-12.27522 0.27217,-0.0125 0.5444,-0.0175 0.81648,-0.015 1.9046,0.0173 3.79995,0.3962 5.58829,1.04593 2.753349,0.956 5.230539,2.71094 7.146849,4.89066 l 5.59036,-1.49759 c -1.545,-2.22993 -3.47179,-4.18694 -5.75055,-5.70611 -3.89402,-2.66924 -8.612829,-4.18048 -13.348539,-4.038 z" /><text
       xml:space="preserve"
       style="font-style:normal;font-variant:normal;font-weight:normal;font-stretch:normal;font-size:33.9647px;font-family:'Berlin Sans FB';-inkscape-font-specification:'Berlin Sans FB, Normal';font-variant-ligatures:normal;font-variant-caps:normal;font-variant-numeric:normal;font-variant-east-asian:normal;fill:#000000;stroke:#000000;stroke-width:0"
       x="52.759274"
       y="143.6516"
       id="text22"
       transform="scale(1.0672319,0.93700347)"><tspan
         id="tspan22"
         style="font-style:normal;font-variant:normal;font-weight:normal;font-stretch:normal;font-size:33.9647px;font-family:'Berlin Sans FB';-inkscape-font-specification:'Berlin Sans FB, Normal';font-variant-ligatures:normal;font-variant-caps:normal;font-variant-numeric:normal;font-variant-east-asian:normal;stroke-width:0"
         x="52.759274"
         y="143.6516">Mind</tspan></text><text
       xml:space="preserve"
       style="font-style:normal;font-variant:normal;font-weight:normal;font-stretch:normal;font-size:33.9647px;font-family:'Berlin Sans FB';-inkscape-font-specification:'Berlin Sans FB, Normal';font-variant-ligatures:normal;font-variant-caps:normal;font-variant-numeric:normal;font-variant-east-asian:normal;fill:#000000;stroke:#000000;stroke-width:0"
       x="49.765804"
       y="170.92117"
       id="text23"
       transform="scale(1.0672319,0.93700347)"><tspan
         id="tspan23"
         style="font-style:normal;font-variant:normal;font-weight:normal;font-stretch:normal;font-size:33.9647px;font-family:'Berlin Sans FB';-inkscape-font-specification:'Berlin Sans FB, Normal';font-variant-ligatures:normal;font-variant-caps:normal;font-variant-numeric:normal;font-variant-east-asian:normal;stroke-width:0"
         x="49.765804"
         y="170.92117">Maze</tspan></text></g></svg>
